<?xml version="1.0" encoding="utf-8"?>
<!-- Generator: Adobe Illustrator 17.1.0, SVG Export Plug-In . SVG Version: 6.00 Build 0)  -->
<!DOCTYPE svg PUBLIC "-//W3C//DTD SVG 1.1//EN" "http://www.w3.org/Graphics/SVG/1.1/DTD/svg11.dtd">
<svg version="1.1" id="Layer_1" xmlns="http://www.w3.org/2000/svg" xmlns:xlink="http://www.w3.org/1999/xlink" x="0px" y="0px"
	 viewBox="0 0 512 512" enable-background="new 0 0 512 512" xml:space="preserve">
<g>
	<path fill="#4291CE" d="M443.8,305.4c8.9,5,14.7,12.6,17.3,22.6c2.6,10,1.4,19.5-3.6,28.4l-18.6,32c-5,8.9-12.6,14.7-22.6,17.3
		c-10,2.6-19.5,1.4-28.4-3.6l-77.4-44.5v89.3c0,10.1-3.7,18.8-11.1,26.2c-7.4,7.4-16.1,11.1-26.2,11.1H236
		c-10.1,0-18.8-3.7-26.2-11.1c-7.4-7.4-11.1-16.1-11.1-26.2v-89.3l-77.4,44.5c-8.9,5-18.4,6.3-28.4,3.6c-10-2.6-17.5-8.4-22.6-17.3
		l-18.6-32c-5-8.9-6.3-18.4-3.6-28.4c2.6-10,8.4-17.5,17.3-22.6l77.4-44.8l-77.4-44.8c-8.9-5-14.7-12.6-17.3-22.6
		c-2.6-10-1.4-19.4,3.6-28.4l18.6-32c5-8.9,12.6-14.7,22.6-17.3c10-2.6,19.4-1.4,28.4,3.6l77.4,44.5V74.4c0-10.1,3.7-18.8,11.1-26.2
		c7.4-7.4,16.1-11.1,26.2-11.1h37.2c10.1,0,18.8,3.7,26.2,11.1c7.4,7.4,11.1,16.1,11.1,26.2v89.3l77.4-44.5c8.9-5,18.4-6.3,28.4-3.6
		c10,2.6,17.5,8.4,22.6,17.3l18.6,32c5,8.9,6.3,18.4,3.6,28.4c-2.6,10-8.4,17.5-17.3,22.6l-77.4,44.8L443.8,305.4z"/>
</g>
</svg>
